<svg width="40" height="40" viewBox="0 0 40 40" fill="none" xmlns="http://www.w3.org/2000/svg">
<g filter="url(#filter0_d_16_8)">
<path d="M15.1346 4.66477C16.1222 2.28894 19.7585 0 19.7585 0C19.7585 0 14.3757 1.83373 12.5658 4.66477C11.6367 6.11811 11.186 7.08951 11.0245 8.81123C10.8532 10.6376 11.1978 12.134 11.9552 13.476C12.5812 14.585 13.3564 15.5886 14.4882 16.5858C16.4526 18.3168 18.1792 19.0884 20.786 19.1774C24.7409 19.3123 27.7041 17.5414 29.5199 13.9943C30.4587 12.1602 30.4882 9.5 30.4882 9.5C30.4882 9.5 29.6677 12.5052 27.9786 13.9943C25.8155 15.9013 23.5892 16.1825 20.786 15.5492C18.123 14.9476 16.3449 13.8703 15.1346 11.4028C13.9779 9.04434 14.1259 7.09138 15.1346 4.66477Z" fill="url(#paint0_linear_16_8)"/>
<path d="M10.3002 8.29292C10.4516 4.94589 13.8965 0.518304 13.8965 0.518304C13.8965 0.518304 10.5852 2.61843 9.27269 4.66476C8.4426 5.95898 8.12865 6.8044 7.73141 8.29292C7.13425 10.5306 7.17018 13.9609 7.48407 15.137C7.63314 15.392 7.73141 15.5492 7.73141 15.5492C7.63778 15.5492 7.55402 15.3991 7.48407 15.137C7.12664 14.5257 6.47719 13.3527 6.19013 12.4394C5.76133 11.075 5.67637 8.81122 5.67637 8.81122C5.67637 8.81122 4.38098 11.8957 4.13509 13.9943C3.8515 16.4148 4.01054 17.8632 4.64885 20.214C5.43152 23.0964 6.22696 24.7643 8.24517 26.952C9.91368 28.7606 11.137 29.5944 13.3828 30.5801C16.7147 32.0427 19.0547 32.2689 22.6304 31.6168C26.4282 30.9241 28.6651 29.7347 31.3643 26.952C34.8301 23.3789 36.1406 20.0277 35.9882 15.0309C35.8552 10.6729 31.8781 4.66476 31.8781 4.66476C31.8781 4.66476 32.4202 7.17958 32.3919 8.81122C32.356 10.8751 32.238 12.1277 31.3643 13.9943C29.5816 17.8029 26.7837 19.7856 22.6304 20.214C18.7756 20.6115 16.0297 19.4408 13.3828 16.5858C11.0408 14.0598 10.1439 11.7481 10.3002 8.29292Z" fill="url(#paint1_linear_16_8)"/>
</g>
<defs>
<filter id="filter0_d_16_8" x="0" y="0" width="40" height="39.9634" filterUnits="userSpaceOnUse" color-interpolation-filters="sRGB">
<feFlood flood-opacity="0" result="BackgroundImageFix"/>
<feColorMatrix in="SourceAlpha" type="matrix" values="0 0 0 0 0 0 0 0 0 0 0 0 0 0 0 0 0 0 127 0" result="hardAlpha"/>
<feOffset dy="4"/>
<feGaussianBlur stdDeviation="2"/>
<feComposite in2="hardAlpha" operator="out"/>
<feColorMatrix type="matrix" values="0 0 0 0 0 0 0 0 0 0 0 0 0 0 0 0 0 0 0.25 0"/>
<feBlend mode="normal" in2="BackgroundImageFix" result="effect1_dropShadow_16_8"/>
<feBlend mode="normal" in="SourceGraphic" in2="effect1_dropShadow_16_8" result="shape"/>
</filter>
<linearGradient id="paint0_linear_16_8" x1="6.19672" y1="19.5" x2="36.6967" y2="20" gradientUnits="userSpaceOnUse">
<stop stop-color="#FF0202"/>
<stop offset="1" stop-color="#4119DF"/>
</linearGradient>
<linearGradient id="paint1_linear_16_8" x1="6.19672" y1="19.5" x2="36.6967" y2="20" gradientUnits="userSpaceOnUse">
<stop stop-color="#FF0202"/>
<stop offset="1" stop-color="#4119DF"/>
</linearGradient>
</defs>
</svg>
